<svg xmlns="http://www.w3.org/2000/svg" viewBox="0 0 900 500"><rect width="900" height="500" rx="36" fill="#090909"/><rect x="45" y="55" width="810" height="390" rx="26" fill="#121212" stroke="#303030"/><rect x="70" y="80" width="180" height="340" rx="18" fill="#181818"/><rect x="275" y="80" width="555" height="70" rx="16" fill="#181818"/><rect x="275" y="170" width="270" height="230" rx="18" fill="#151515"/><rect x="565" y="170" width="265" height="230" rx="18" fill="#151515"/><circle cx="120" cy="125" r="24" fill="#fff"/><path d="M105 190h105M105 225h80M105 260h105M105 315h75" stroke="#666" stroke-width="12" stroke-linecap="round"/><path d="M315 115h250M610 115h160M315 220h180M315 255h130M605 220h170M605 255h125" stroke="#777" stroke-width="11" stroke-linecap="round"/></svg>